<mxfile host="app.diagrams.net" modified="2024-03-07T08:02:26.420Z" agent="Mozilla/5.0 (Windows NT 10.0; Win64; x64) AppleWebKit/537.36 (KHTML, like Gecko) Chrome/121.0.0.0 Safari/537.36" version="23.1.5" etag="O5FNMkbBO1EJOLyYZvJw" type="github">
  <diagram name="Lapa-1" id="NLxF3UfpTNLWaqkNGGjy">
    <mxGraphModel>
      <root>
        <mxCell id="0" />
        <mxCell id="1" parent="0" />
      </root>
    </mxGraphModel>
  </diagram>
</mxfile>
